<?xml version="1.0" encoding="UTF-8" standalone="no"?>
<!-- Created with Inkscape (http://www.inkscape.org/) -->

<svg
   xmlns:dc="http://purl.org/dc/elements/1.1/"
   xmlns:cc="http://creativecommons.org/ns#"
   xmlns:rdf="http://www.w3.org/1999/02/22-rdf-syntax-ns#"
   xmlns:svg="http://www.w3.org/2000/svg"
   xmlns="http://www.w3.org/2000/svg"
   xmlns:sodipodi="http://sodipodi.sourceforge.net/DTD/sodipodi-0.dtd"
   xmlns:inkscape="http://www.inkscape.org/namespaces/inkscape"
   width="472.96875"
   height="504.53125"
   id="svg2"
   version="1.1"
   inkscape:version="0.48.3.1 r9886"
   sodipodi:docname="lairoflogo_moon4.svg">
  <defs
     id="defs4">
    <filter
       inkscape:collect="always"
       id="filter4026"
       color-interpolation-filters="sRGB">
      <feGaussianBlur
         inkscape:collect="always"
         stdDeviation="7.0847032"
         id="feGaussianBlur4028" />
    </filter>
    <filter
       inkscape:collect="always"
       id="filter3809"
       color-interpolation-filters="sRGB">
      <feGaussianBlur
         inkscape:collect="always"
         stdDeviation="2.3157978"
         id="feGaussianBlur3811" />
    </filter>
  </defs>
  <sodipodi:namedview
     id="base"
     pagecolor="#ffffff"
     bordercolor="#666666"
     borderopacity="1.0"
     inkscape:pageopacity="0.0"
     inkscape:pageshadow="2"
     inkscape:zoom="0.5"
     inkscape:cx="81.769301"
     inkscape:cy="114.67173"
     inkscape:document-units="px"
     inkscape:current-layer="capa1"
     showgrid="false"
     showguides="true"
     inkscape:guide-bbox="true"
     inkscape:window-width="1366"
     inkscape:window-height="695"
     inkscape:window-x="0"
     inkscape:window-y="24"
     inkscape:window-maximized="1"
     fit-margin-top="0"
     fit-margin-left="0"
     fit-margin-right="0"
     fit-margin-bottom="0" />
  <metadata
     id="metadata7">
    <rdf:RDF>
      <cc:Work
         rdf:about="">
        <dc:format>image/svg+xml</dc:format>
        <dc:type
           rdf:resource="http://purl.org/dc/dcmitype/StillImage" />
        <dc:title></dc:title>
      </cc:Work>
    </rdf:RDF>
  </metadata>
  <g
     inkscape:label="Capa 1"
     inkscape:groupmode="layer"
     id="capa1"
     transform="translate(-111.53125,-224.3125)">
    <path
       style="fill:#000008;fill-opacity:1;stroke:none"
       d="m 111.53125,224.3125 0,504.53125 472.96875,0 0,-504.53125 -472.96875,0 z"
       id="rect2985"
       inkscape:connector-curvature="0" />
    <path
       transform="matrix(0.82630463,0,0,0.8077102,33.922883,121.3792)"
       d="m 599.62656,403.23816 c 0,131.99721 -104.47223,239.00209 -233.34525,239.00209 -128.87302,0 -233.34524,-107.00488 -233.34524,-239.00209 0,-131.99721 104.47222,-239.00209 233.34524,-239.00209 128.87302,0 233.34525,107.00488 233.34525,239.00209 z"
       sodipodi:ry="239.00209"
       sodipodi:rx="233.34525"
       sodipodi:cy="403.23816"
       sodipodi:cx="366.28131"
       id="path4012"
       style="fill:#e1e1ff;fill-opacity:1;stroke:#000000;stroke-width:34.99950027;stroke-linejoin:round;stroke-miterlimit:4;stroke-opacity:0;stroke-dasharray:none;filter:url(#filter4026);enable-background:new"
       sodipodi:type="arc" />
    <path
       style="fill:#000000;fill-opacity:1;stroke:none;filter:url(#filter3809)"
       d="m 335,264.71875 c -1.3458,-0.0455 -4.43359,14.86118 -7.625,27.3125 -3.52156,13.73939 -7.36761,19.31535 -13.8125,30.34375 -6.44489,11.0284 -2.03901,20.86873 -10.34375,28.90625 -5.62862,0.83816 -8.85571,-6.23631 -11.78125,-13.15625 -2.92554,-6.91994 -13.27469,-22.90066 -10,-12.1875 3.27469,10.71316 5.1771,26.48815 8.96875,39.125 3.79165,12.63685 5.19092,13.30708 13.875,23.375 8.68408,10.06792 22.59908,15.53543 27.5,28.5625 -11.14085,7.49761 -32.11335,6.65429 -35,17.5 -2.88665,10.84571 6.19234,50.22808 -1.4375,71.0625 -14.34902,-1.95097 -29.72449,-11.67052 -32.03125,-19.5 -2.30676,-7.82948 -1.3657,-6.21825 -3.46875,-13.625 -2.10305,-7.40675 -6.38854,-14.79134 -8.40625,-17.5625 -1.45972,4.47275 -1.00325,8.45164 1.875,16.125 2.87825,7.67336 1.25,19.5625 1.25,19.5625 0,0 -6.07328,2.54517 -13.75,-4.1875 -7.67672,-6.73267 -7.11523,-9.45136 -16.4375,-15.46875 -9.32227,-6.01739 -18.05009,-13.14643 -20.40625,-13.53125 0.29599,4.42086 4.795,10.24017 12.0625,15.125 7.2675,4.88483 17.38179,15.61981 14.3125,16.65625 -3.06929,1.03644 -12.13302,-2.59446 -21.375,-4.40625 -9.20853,-1.80523 -30.24486,-5.52668 -35.625,-3.59375 3.74887,3.94589 10.54294,5.28717 22.65625,7.09375 12.11331,1.80658 30.40805,6.31952 30.4375,9.8125 0.0294,3.49298 -14.974,4.25015 -24.84375,4.375 -9.86975,0.12485 -17.26054,1.44973 -20.6875,3.75 3.92748,2.15234 8.50445,2.27564 17.6875,1.90625 9.18304,-0.36939 31.57964,-2.49341 32.125,1.78125 0.54536,4.27466 -11.22244,6.63525 -18.53125,8.4375 -7.30882,1.80225 -11.10991,5.03639 -13.96875,8.78125 4.46736,0.20834 8.62405,-1.18594 15.625,-3.59375 7.00095,-2.40781 11.0118,-2.93668 22.5,-2.75 11.48821,0.18667 16.67121,0.23235 40.09375,4.3125 23.42253,4.08014 35.04882,20.74201 42.5,16.59375 7.45118,-4.14826 1.99832,-42.25818 6.78125,-57.875 7.35734,17.1496 48.37214,34.2991 68.0625,45.875 -42.5136,22.33172 -96.85684,58.2045 -96.746,82.77195 0.15458,34.26225 104.48217,22.58722 142.88672,24.98828 -12.97471,41.03099 -4.69346,71.35131 6.83146,91.41387 137.55286,-0.002 6.31641,0.011 137.73613,0.007 0.01,-166.19898 0.12909,-165.75327 0.0233,-304.32153 -19.14953,-10.20518 -37.13541,-34.99572 -51.15736,-35.05907 -0.2822,-10e-4 -0.57442,0.0266 -0.85547,0.0429 -7.23563,0.41976 -20.59501,16.77224 -35.65625,37.28125 -36.21892,6.79885 -65.29066,-16.12633 -87.5625,-17.28125 -22.40711,-1.16193 -20.47826,1.51235 -30.25,0.71875 -9.77175,-0.79354 -22.09171,-5.27663 -25.09375,-13.2187 5.01829,-2.82822 18.48757,-15.71176 27.21875,-30.40625 8.73117,-14.69448 14.70371,-22.04832 21.6875,-28.53125 6.98379,-6.48293 -7.72112,1.38136 -15.34375,7.625 -7.62264,6.24364 -14.76102,5.47018 -20.71875,5.25 -4.82131,-3.44004 -7.34758,-17.85335 -11.78125,-27.5 -4.43367,-9.64665 -10.7809,-11.35156 -14.1875,-25.53125 -3.4066,-14.17969 -4.39718,-29.01128 -5.46875,-32.6875 -0.10046,-0.34465 -0.20453,-0.49529 -0.34375,-0.5 z M 424.28125,449.5 c 7.12659,4.94297 33.04731,6.46887 50.84375,7.4375 -6.93775,9.66975 -13.82904,19.09753 -20.28125,27.3125 -10.19441,-17.37048 -15.8967,-21.53108 -30.5625,-34.75 z"
       id="path3072"
       inkscape:connector-curvature="0"
       sodipodi:nodetypes="csscsssscscsscscsscssscscscssscssssccccccccccsscssscssscccccc" />
  </g>
</svg>
